<svg xmlns="http://www.w3.org/2000/svg" viewBox="0 0 607.73 151.88"><defs><style>.cls-1{fill:none;}.cls-2{fill:#474758;}</style></defs><g id="Layer_2" data-name="Layer 2"><g id="Layer_1-2" data-name="Layer 1"><path class="cls-1" d="M374.45,74.19a18.79,18.79,0,0,0-6.07-5.53,16.46,16.46,0,0,0-8.37-2.1q-9.72,0-14.65,6.75t-4.93,18a36,36,0,0,0,1.28,9.79,22.15,22.15,0,0,0,3.85,7.76A19.26,19.26,0,0,0,351.7,114a17.56,17.56,0,0,0,8.31,1.89,17.2,17.2,0,0,0,8.91-2.16,18.81,18.81,0,0,0,6-5.6,22.81,22.81,0,0,0,3.38-7.83,40.14,40.14,0,0,0,1-9,34.73,34.73,0,0,0-1.21-9.18A25,25,0,0,0,374.45,74.19Z"/><polygon class="cls-1" points="444.25 46.31 429.67 87.76 459.1 87.76 444.65 46.31 444.25 46.31"/><polygon class="cls-2" points="99.14 38.03 104.61 32.56 106.44 30.73 106.44 33.31 106.44 41.05 106.44 126.1 124.82 126.1 124.82 11.76 124.81 8.55 124.82 0 111.18 0 0 111.18 0 126.1 11.07 126.1 99.14 38.03"/><path class="cls-2" d="M0,111.18,111.18,0h13.64V126.1H106.44V30.74l-1.82,1.82L99.14,38,11.07,126.1H0Z"/><polygon class="cls-2" points="78.57 18.38 96.95 0 0 0 0 18.38 78.57 18.38"/><path class="cls-2" d="M0,0H101.29L82.91,18.38H0Z"/><rect class="cls-2" x="299.05" y="56.3" width="15.39" height="69.79"/><path class="cls-2" d="M435.61,29.71l-37,96.39H416l9.05-25.52h38.47l9.05,25.52h18.09L453.56,29.71Zm-5.94,58.05,14.58-41.45h.4L459.1,87.76Z"/><path class="cls-2" d="M532.81,54.41a18.41,18.41,0,0,0-6.89,1.35,23.93,23.93,0,0,0-6.14,3.58,25.85,25.85,0,0,0-4.73,4.93,15.64,15.64,0,0,0-2.63,5.53h-.27V56.3H497.71v69.8H513.1V92.89a32.43,32.43,0,0,1,1.48-10.26,22.43,22.43,0,0,1,4-7.49,16.75,16.75,0,0,1,6-4.59A17.61,17.61,0,0,1,532,69a26.59,26.59,0,0,1,3.3.21c1.13.13,2.23.29,3.31.47V54.82l-2.09-.27A33,33,0,0,0,532.81,54.41Z"/><path class="cls-2" d="M586.87,111.65a15.46,15.46,0,0,1-11.13,4.19,16.39,16.39,0,0,1-8.51-2.09,17.66,17.66,0,0,1-5.74-5.47,23.87,23.87,0,0,1-3.24-7.7,38,38,0,0,1-1-8.64,36.64,36.64,0,0,1,1.89-12.89,21.17,21.17,0,0,1,4.73-7.69,15,15,0,0,1,6.21-3.78,22,22,0,0,1,6.34-1,17,17,0,0,1,10.73,3.31q4.26,3.31,5.2,9.79h15.39a26.83,26.83,0,0,0-3.24-11.21,24.84,24.84,0,0,0-7-7.83A30.38,30.38,0,0,0,587.82,56a41.88,41.88,0,0,0-11.54-1.56,36.19,36.19,0,0,0-15.06,2.91,30.34,30.34,0,0,0-10.73,8,33.76,33.76,0,0,0-6.48,12,48.86,48.86,0,0,0-2.16,14.71,44.43,44.43,0,0,0,2.23,14.31,32,32,0,0,0,6.55,11.41,30.65,30.65,0,0,0,10.59,7.56A35.65,35.65,0,0,0,575.74,128q13.5,0,21.66-7.22t10.33-20.86H592.34Q591.26,107.47,586.87,111.65Z"/><rect class="cls-2" x="299.05" y="29.71" width="15.39" height="14.58"/><path class="cls-2" d="M386.6,65.28a28.37,28.37,0,0,0-10.19-8A33.28,33.28,0,0,0,362,54.41a29.94,29.94,0,0,0-12.55,2.64,19,19,0,0,0-9.05,8.7h-.27V56.3H325.58v95.58H341V117.05h.27a18.93,18.93,0,0,0,4.39,4.93,25.27,25.27,0,0,0,5.74,3.44,28.89,28.89,0,0,0,6.48,2,37.57,37.57,0,0,0,6.75.61A27.83,27.83,0,0,0,378,125a27.51,27.51,0,0,0,9.38-8.1,35.44,35.44,0,0,0,5.54-11.68,51.26,51.26,0,0,0,1.82-13.63,50.07,50.07,0,0,0-2-14.45A34.64,34.64,0,0,0,386.6,65.28Zm-8.3,35a22.81,22.81,0,0,1-3.38,7.83,18.81,18.81,0,0,1-6,5.6,17.2,17.2,0,0,1-8.91,2.16A17.56,17.56,0,0,1,351.7,114a19.26,19.26,0,0,1-6.14-5.13,22.15,22.15,0,0,1-3.85-7.76,36,36,0,0,1-1.28-9.79q0-11.2,4.93-18T360,66.56a16.46,16.46,0,0,1,8.37,2.1,18.79,18.79,0,0,1,6.07,5.53,25,25,0,0,1,3.65,7.9,34.73,34.73,0,0,1,1.21,9.18A40.14,40.14,0,0,1,378.3,100.25Z"/><path class="cls-2" d="M284.22,54.41a18.36,18.36,0,0,0-6.88,1.35,24.16,24.16,0,0,0-6.15,3.58,25.8,25.8,0,0,0-4.72,4.93,15.47,15.47,0,0,0-2.63,5.53h-.27V56.3H249.12v69.8h15.39V92.89A32.42,32.42,0,0,1,266,82.63a22.43,22.43,0,0,1,4.05-7.49,16.8,16.8,0,0,1,6-4.59A17.64,17.64,0,0,1,283.41,69a26.87,26.87,0,0,1,3.31.21c1.12.13,2.23.29,3.31.47V54.82l-2.1-.27A32.9,32.9,0,0,0,284.22,54.41Z"/><polygon class="cls-2" points="249.83 29.71 171.8 29.71 171.8 44.29 202.31 44.29 202.31 126.1 219.18 126.1 219.18 44.29 249.83 44.29 249.83 29.71"/></g></g></svg>